<mxfile host="app.diagrams.net" modified="2023-11-06T04:36:45.605Z" agent="Mozilla/5.0 (Macintosh; Intel Mac OS X 10_15_7) AppleWebKit/537.36 (KHTML, like Gecko) Chrome/119.0.0.0 Safari/537.36" etag="ev2Nca42LsRLMkTJzu5Y" version="22.0.8" type="device">
  <diagram name="Page-1" id="gbUz1qCO6Sr_HAIddtB2">
    <mxGraphModel dx="784" dy="707" grid="1" gridSize="10" guides="1" tooltips="1" connect="1" arrows="1" fold="1" page="1" pageScale="1" pageWidth="850" pageHeight="1100" math="0" shadow="0">
      <root>
        <mxCell id="0" />
        <mxCell id="1" parent="0" />
        <mxCell id="Ow_wxtxYFyj_XZS8erMU-26" style="edgeStyle=orthogonalEdgeStyle;rounded=0;orthogonalLoop=1;jettySize=auto;html=1;entryX=0.5;entryY=0;entryDx=0;entryDy=0;" edge="1" parent="1" source="Ow_wxtxYFyj_XZS8erMU-1" target="Ow_wxtxYFyj_XZS8erMU-7">
          <mxGeometry relative="1" as="geometry" />
        </mxCell>
        <mxCell id="Ow_wxtxYFyj_XZS8erMU-29" value="is-offered-by" style="edgeLabel;html=1;align=center;verticalAlign=middle;resizable=0;points=[];" vertex="1" connectable="0" parent="Ow_wxtxYFyj_XZS8erMU-26">
          <mxGeometry x="-0.3872" y="1" relative="1" as="geometry">
            <mxPoint x="14" y="-1" as="offset" />
          </mxGeometry>
        </mxCell>
        <mxCell id="Ow_wxtxYFyj_XZS8erMU-1" value="CPSC 583" style="ellipse;whiteSpace=wrap;html=1;fillColor=#d5e5fb;strokeColor=#6c8ebf;strokeWidth=2;" vertex="1" parent="1">
          <mxGeometry x="260" y="230" width="120" height="80" as="geometry" />
        </mxCell>
        <mxCell id="Ow_wxtxYFyj_XZS8erMU-7" value="ComputerScience" style="ellipse;whiteSpace=wrap;html=1;fillColor=#dae8fc;strokeColor=#6c8ebf;" vertex="1" parent="1">
          <mxGeometry x="40" y="320" width="120" height="80" as="geometry" />
        </mxCell>
        <mxCell id="Ow_wxtxYFyj_XZS8erMU-24" style="edgeStyle=orthogonalEdgeStyle;rounded=0;orthogonalLoop=1;jettySize=auto;html=1;entryX=0;entryY=1;entryDx=0;entryDy=0;" edge="1" parent="1" source="Ow_wxtxYFyj_XZS8erMU-8" target="Ow_wxtxYFyj_XZS8erMU-10">
          <mxGeometry relative="1" as="geometry" />
        </mxCell>
        <mxCell id="Ow_wxtxYFyj_XZS8erMU-25" value="is-located-in" style="edgeLabel;html=1;align=center;verticalAlign=middle;resizable=0;points=[];" vertex="1" connectable="0" parent="Ow_wxtxYFyj_XZS8erMU-24">
          <mxGeometry x="-0.6444" y="1" relative="1" as="geometry">
            <mxPoint x="18" y="1" as="offset" />
          </mxGeometry>
        </mxCell>
        <mxCell id="Ow_wxtxYFyj_XZS8erMU-28" style="edgeStyle=orthogonalEdgeStyle;rounded=0;orthogonalLoop=1;jettySize=auto;html=1;entryX=1;entryY=0.5;entryDx=0;entryDy=0;" edge="1" parent="1" source="Ow_wxtxYFyj_XZS8erMU-8" target="Ow_wxtxYFyj_XZS8erMU-7">
          <mxGeometry relative="1" as="geometry" />
        </mxCell>
        <mxCell id="Ow_wxtxYFyj_XZS8erMU-30" value="is-offered-by" style="edgeLabel;html=1;align=center;verticalAlign=middle;resizable=0;points=[];" vertex="1" connectable="0" parent="Ow_wxtxYFyj_XZS8erMU-28">
          <mxGeometry x="-0.0857" y="-4" relative="1" as="geometry">
            <mxPoint x="-4" y="4" as="offset" />
          </mxGeometry>
        </mxCell>
        <mxCell id="Ow_wxtxYFyj_XZS8erMU-8" value="CPSC 597" style="ellipse;whiteSpace=wrap;html=1;fillColor=#d5e5fb;strokeColor=#6c8ebf;strokeWidth=2;" vertex="1" parent="1">
          <mxGeometry x="260" y="320" width="120" height="80" as="geometry" />
        </mxCell>
        <mxCell id="Ow_wxtxYFyj_XZS8erMU-17" style="edgeStyle=orthogonalEdgeStyle;rounded=0;orthogonalLoop=1;jettySize=auto;html=1;entryX=0;entryY=0.5;entryDx=0;entryDy=0;" edge="1" parent="1" source="Ow_wxtxYFyj_XZS8erMU-9" target="Ow_wxtxYFyj_XZS8erMU-12">
          <mxGeometry relative="1" as="geometry" />
        </mxCell>
        <mxCell id="Ow_wxtxYFyj_XZS8erMU-23" value="is-located-in" style="edgeLabel;html=1;align=center;verticalAlign=middle;resizable=0;points=[];" vertex="1" connectable="0" parent="Ow_wxtxYFyj_XZS8erMU-17">
          <mxGeometry x="-0.2444" y="-2" relative="1" as="geometry">
            <mxPoint x="12" y="-2" as="offset" />
          </mxGeometry>
        </mxCell>
        <mxCell id="Ow_wxtxYFyj_XZS8erMU-27" style="edgeStyle=orthogonalEdgeStyle;rounded=0;orthogonalLoop=1;jettySize=auto;html=1;entryX=0.5;entryY=1;entryDx=0;entryDy=0;" edge="1" parent="1" source="Ow_wxtxYFyj_XZS8erMU-9" target="Ow_wxtxYFyj_XZS8erMU-7">
          <mxGeometry relative="1" as="geometry" />
        </mxCell>
        <mxCell id="Ow_wxtxYFyj_XZS8erMU-31" value="is-offered-by" style="edgeLabel;html=1;align=center;verticalAlign=middle;resizable=0;points=[];" vertex="1" connectable="0" parent="Ow_wxtxYFyj_XZS8erMU-27">
          <mxGeometry x="-0.4298" y="-3" relative="1" as="geometry">
            <mxPoint x="10" as="offset" />
          </mxGeometry>
        </mxCell>
        <mxCell id="Ow_wxtxYFyj_XZS8erMU-9" value="CPSC 473" style="ellipse;whiteSpace=wrap;html=1;fillColor=#d5e5fb;strokeColor=#6c8ebf;strokeWidth=2;" vertex="1" parent="1">
          <mxGeometry x="260" y="410" width="120" height="80" as="geometry" />
        </mxCell>
        <mxCell id="Ow_wxtxYFyj_XZS8erMU-10" value="CS-110B" style="ellipse;whiteSpace=wrap;html=1;fillColor=#d5e5fb;strokeColor=#6c8ebf;strokeWidth=2;" vertex="1" parent="1">
          <mxGeometry x="480" y="230" width="120" height="80" as="geometry" />
        </mxCell>
        <mxCell id="Ow_wxtxYFyj_XZS8erMU-12" value="CS-406" style="ellipse;whiteSpace=wrap;html=1;fillColor=#d5e5fb;strokeColor=#6c8ebf;strokeWidth=2;" vertex="1" parent="1">
          <mxGeometry x="480" y="410" width="120" height="80" as="geometry" />
        </mxCell>
        <mxCell id="Ow_wxtxYFyj_XZS8erMU-13" value="" style="endArrow=classic;html=1;rounded=0;entryX=0;entryY=0.5;entryDx=0;entryDy=0;exitX=1;exitY=0.5;exitDx=0;exitDy=0;" edge="1" parent="1" source="Ow_wxtxYFyj_XZS8erMU-1" target="Ow_wxtxYFyj_XZS8erMU-10">
          <mxGeometry width="50" height="50" relative="1" as="geometry">
            <mxPoint x="460" y="240" as="sourcePoint" />
            <mxPoint x="510" y="190" as="targetPoint" />
          </mxGeometry>
        </mxCell>
        <mxCell id="Ow_wxtxYFyj_XZS8erMU-21" value="is-located-in" style="edgeLabel;html=1;align=center;verticalAlign=middle;resizable=0;points=[];" vertex="1" connectable="0" parent="Ow_wxtxYFyj_XZS8erMU-13">
          <mxGeometry x="-0.1778" y="-1" relative="1" as="geometry">
            <mxPoint x="9" y="-1" as="offset" />
          </mxGeometry>
        </mxCell>
      </root>
    </mxGraphModel>
  </diagram>
</mxfile>
